<svg width="232" height="43" viewBox="0 0 232 43" fill="none" xmlns="http://www.w3.org/2000/svg">
<path d="M4.17173 38.2947C0.233533 32.1671 3.43426 23.6709 10.3372 22.3234C11.4878 22.0988 12.649 22.0823 13.7884 22.3067C14.4721 22.4414 14.7116 22.2044 14.8947 21.5454C16.7002 15.048 20.747 11.1491 26.9692 9.87545C32.8933 8.66282 39.7791 12.5405 42.2362 18.447C42.5252 19.1416 42.8813 19.4551 43.5898 19.6286C48.7152 20.8833 52.1287 25.7694 52.0348 31.6159C51.9529 36.7232 48.1781 41.3183 43.1914 42.3427C42.6112 42.4619 42.0024 42.4515 41.4068 42.4518C31.6581 42.4569 21.9093 42.4175 12.1609 42.4734C8.83118 42.4925 6.25628 41.0775 4.17173 38.2947ZM35.2609 17.8992C36.0479 18.6348 36.3561 19.5054 35.8701 20.5623C35.3773 21.6339 34.5518 22.0583 33.4671 21.8047C33.0111 21.6981 32.6855 21.834 32.3362 22.1152C31.6508 22.6668 30.9378 23.1793 30.2379 23.7104C25.8963 27.0048 22.1811 30.813 20.7992 36.5908C20.5735 37.5346 19.924 38.1702 18.9815 38.3327C17.9827 38.5049 17.1351 38.2193 16.5257 37.2975C16.3558 37.0405 16.1781 36.6438 15.9525 36.5976C14.2601 36.2509 13.2058 34.7343 11.7103 34.0303C10.8794 33.6392 10.4246 32.8821 10.7242 31.8866C11.0096 30.9383 11.7414 30.632 12.6074 30.8268C13.6552 31.0624 13.9082 31.873 13.8009 32.9108C13.6852 34.031 14.6066 34.2074 15.2386 34.6168C15.8059 34.9843 16.1856 34.7333 16.6744 34.2463C18.2004 32.7259 17.8533 28.9845 15.8204 27.1802C13.7298 25.3248 10.8111 25.1413 8.41769 26.7836C6.31041 28.2296 5.15778 31.3705 5.80802 33.895C6.60675 36.9959 8.76493 38.9206 11.5846 38.9481C14.9841 38.9813 18.3845 38.9212 21.7838 38.9664C22.7521 38.9793 22.9563 38.5547 22.9787 37.617C23.1037 32.3745 26.4773 28.193 31.2739 27.2099C32.664 26.9249 34.0688 26.656 35.415 26.2037C40.1323 24.6189 41.0215 21.0584 37.6297 17.1918C34.4705 13.5904 30.5439 12.3553 26.1012 13.6858C21.5651 15.0443 18.8914 18.4205 17.7895 23.2713C17.6435 23.9143 17.8991 24.3211 18.2887 24.7447C19.9445 26.5454 20.7203 28.7151 20.6416 31.2412C20.6294 31.6309 20.4948 32.0643 20.8008 32.5345C21.7344 31.0074 22.5388 29.5293 23.57 28.2081C25.6779 25.5076 28.2907 23.4608 30.9898 21.5186C31.5711 21.1003 31.9812 20.6992 31.9688 19.8175C31.9412 17.8502 33.3863 16.9633 35.2609 17.8992ZM34.6255 19.6821C34.6129 19.1967 34.3873 18.948 33.9271 19.0176C33.6427 19.0606 33.4785 19.2732 33.4401 19.5758C33.403 19.8689 33.4673 20.1402 33.7372 20.271C34.1648 20.4782 34.434 20.2619 34.6255 19.6821ZM18.464 36.5393C19.0499 36.4757 19.2739 36.1258 19.0461 35.5567C18.9074 35.21 18.5401 35.1541 18.278 35.3561C17.8114 35.7157 17.8128 36.136 18.464 36.5393Z" fill="url(#paint0_linear_375_119)"/>
<path d="M14.3862 7.64805C15.8152 11.5176 14.5849 14.8029 12.8006 18.0342C11.7802 17.1641 11.2322 15.7552 10.2611 11.7567C10.2705 12.9412 10.4499 14.1053 10.731 15.2493C11.0112 16.3897 11.3341 17.5182 11.6482 18.6886C9.65963 18.2818 5.97803 13.7458 5.76984 10.1256C5.54953 6.29465 8.39254 0.898878 11.2267 0C11.1811 2.11123 12.5557 3.5634 13.3385 5.29481C13.6795 6.04894 14.0185 6.80409 14.3862 7.64805Z" fill="url(#paint1_linear_375_119)"/>
<path d="M52.9891 19.2578C52.8076 18.6328 52.6477 18.1013 52.5093 17.5636C52.312 16.7971 51.9927 16.2788 51.1643 16.0312C50.1551 15.7295 49.6575 14.7989 49.8898 13.6903C50.068 12.8395 49.8245 12.2713 49.3642 11.6347C46.7201 7.97754 43.2858 5.55589 39.206 4.12432C38.6781 3.93907 38.2027 3.83183 37.6378 4.2602C36.8553 4.85356 35.979 4.74255 35.3275 3.92957C34.9777 3.49308 34.605 3.30027 34.0819 3.28414C30.49 3.17333 27.0294 3.8983 23.6304 5.07653C22.9866 5.29969 22.8662 5.86208 22.609 6.38543C22.094 7.4333 21.2572 7.98769 20.138 7.88682C19.0649 7.79011 18.3386 7.13024 18.0093 6.04573C17.6636 4.90726 17.9513 3.91678 18.7951 3.13169C19.7909 2.20528 21.3242 2.29294 22.1839 3.47763C22.6393 4.10517 22.9963 4.0713 23.5829 3.86842C27.1216 2.64436 30.7292 1.88032 34.4754 2.19876C34.8708 2.23238 35.0716 2.05005 35.3219 1.77501C36.3062 0.693718 37.3977 0.76897 38.0946 2.01797C38.3739 2.51836 38.7096 2.76164 39.1938 2.91694C43.8024 4.3952 47.6246 7.11377 50.5773 11.1892C50.8652 11.5866 51.1482 11.8034 51.6877 11.7934C53.505 11.7599 54.5197 13.4575 53.6461 15.1293C53.2664 15.856 53.2945 16.4034 53.556 17.1265C54.4062 19.4768 54.91 21.9273 55.1834 24.4272C55.2441 24.9824 55.4435 25.3486 55.8538 25.7127C56.7925 26.5458 56.8843 27.7855 56.164 28.6707C55.5195 29.4628 54.406 29.5516 53.6493 28.8712C52.8198 28.1252 52.6959 26.9849 53.5072 26.0192C54.1062 25.3062 54.036 24.5569 53.9213 23.7832C53.6997 22.2888 53.4532 20.7959 52.9891 19.2578ZM19.7581 6.02739C20.3314 6.50139 20.8221 6.32257 21.1827 5.74528C21.4603 5.30083 21.3963 4.83187 21.0084 4.45207C20.6582 4.10906 20.27 4.05347 19.8973 4.37472C19.4084 4.79608 19.1802 5.29741 19.7581 6.02739Z" fill="url(#paint2_linear_375_119)"/>
<path d="M2.30227 16.2412C4.75598 14.9845 6.36909 15.2476 8.11082 16.9496C8.78246 17.6059 8.9002 18.3141 7.9566 19.1039C6.51193 20.3131 4.85973 20.7899 3.04089 19.9256C2.19711 19.5246 1.41602 18.983 0.474709 18.7851C-0.189042 18.6456 -0.0779023 18.1539 0.327061 17.7386C0.894049 17.1573 1.53315 16.6786 2.30227 16.2412Z" fill="#187329"/>
<path d="M55.1748 30.8547C54.8263 33.1972 54.3904 35.4201 53.6439 37.5541C53.4356 38.1497 53.6618 38.5072 53.9342 38.9582C54.583 40.0328 54.47 41.2624 53.7051 42.1577C53.0143 42.9663 51.8651 43.2277 50.9328 42.7884C49.9714 42.3353 49.3734 41.2317 49.5029 40.0601C49.6333 38.8802 50.3374 38.1884 51.3708 37.9676C52.1007 37.8117 52.4418 37.4077 52.6723 36.6951C53.2961 34.7668 53.7309 32.7962 53.9873 30.7781C54.0356 30.3979 54.1346 30.0376 54.5419 29.9943C55.0357 29.9418 55.173 30.3067 55.1748 30.8547ZM51.2937 40.3605C51.3112 41.0188 51.6671 41.1938 52.1678 40.953C52.487 40.7995 52.6691 40.4168 52.4054 40.0765C52.0305 39.5925 51.6492 39.7212 51.2937 40.3605Z" fill="#E5733D"/>
<path d="M39.3937 37.9997C39.1885 37.9997 39.012 37.9445 38.8643 37.834C38.7165 37.7144 38.5975 37.5303 38.5072 37.2817L36.7218 32.1733C36.6479 31.9524 36.6233 31.7591 36.6479 31.5934C36.6807 31.4185 36.7587 31.2805 36.8819 31.1792C37.005 31.078 37.1692 31.0273 37.3744 31.0273C37.555 31.0273 37.7027 31.078 37.8176 31.1792C37.9326 31.2713 38.0311 31.4507 38.1132 31.7177L39.603 36.3153H39.3198L40.859 31.6072C40.9246 31.4047 41.0108 31.2575 41.1175 31.1654C41.2325 31.0734 41.3802 31.0273 41.5608 31.0273C41.7414 31.0273 41.8892 31.078 42.0041 31.1792C42.119 31.2713 42.2052 31.4139 42.2627 31.6072L43.7772 36.3153H43.5186L45.0208 31.6763C45.1029 31.4277 45.2055 31.2575 45.3286 31.1654C45.4599 31.0734 45.6036 31.0273 45.7596 31.0273C45.9566 31.0273 46.1084 31.0826 46.2151 31.193C46.3219 31.3035 46.3834 31.4461 46.3998 31.621C46.4163 31.7867 46.3875 31.9708 46.3136 32.1733L44.5406 37.2817C44.4585 37.5211 44.3395 37.7005 44.1835 37.8202C44.0357 37.9399 43.8592 37.9997 43.654 37.9997C43.4488 37.9997 43.2682 37.9399 43.1123 37.8202C42.9645 37.7005 42.8496 37.5211 42.7675 37.2817L41.1545 32.4908H41.8563L40.2803 37.2679C40.1982 37.5165 40.0832 37.7005 39.9355 37.8202C39.7877 37.9399 39.6071 37.9997 39.3937 37.9997Z" fill="white"/>
<path d="M28.7615 38C28.5152 38 28.3264 37.9263 28.1951 37.7791C28.0637 37.6226 27.998 37.4017 27.998 37.1163V31.8974C27.998 31.6121 28.0637 31.3958 28.1951 31.2485C28.3264 31.1012 28.5111 31.0276 28.7491 31.0276C28.9872 31.0276 29.1719 31.1012 29.3032 31.2485C29.4346 31.3958 29.5002 31.6121 29.5002 31.8974V32.8363L29.3648 32.4911C29.5454 32.0033 29.8245 31.6351 30.2021 31.3866C30.5879 31.1289 31.023 31 31.5073 31C31.9916 31 32.3897 31.1012 32.7016 31.3037C33.0136 31.5062 33.2475 31.8146 33.4035 32.2288C33.5594 32.6338 33.6374 33.1492 33.6374 33.7751V37.1163C33.6374 37.4017 33.5718 37.6226 33.4404 37.7791C33.3091 37.9263 33.1203 38 32.874 38C32.6278 38 32.4348 37.9263 32.2953 37.7791C32.164 37.6226 32.0983 37.4017 32.0983 37.1163V33.858C32.0983 33.3333 32.008 32.9513 31.8274 32.712C31.655 32.4727 31.3841 32.353 31.0147 32.353C30.5633 32.353 30.2021 32.5141 29.9312 32.8363C29.6685 33.1492 29.5372 33.568 29.5372 34.0927V37.1163C29.5372 37.7054 29.2786 38 28.7615 38Z" fill="white"/>
<path d="M12.9295 32.2044C13.0007 32.4413 12.7889 32.6746 12.4564 32.7253C12.1239 32.776 11.7967 32.625 11.7256 32.3881C11.6544 32.1511 11.8662 31.9179 12.1987 31.8671C12.5311 31.8164 12.8584 31.9674 12.9295 32.2044Z" fill="white"/>
<path d="M37.4435 2.92239C37.5012 3.23472 37.1927 3.52127 36.7545 3.56241C36.3163 3.60355 35.9142 3.38371 35.8565 3.07138C35.7988 2.75905 36.1072 2.47251 36.5454 2.43136C36.9837 2.39022 37.3857 2.61006 37.4435 2.92239Z" fill="white"/>
<path d="M52.6467 13.9204C52.7178 14.1573 52.479 14.3946 52.1133 14.4504C51.7476 14.5062 51.3934 14.3594 51.3222 14.1224C51.2511 13.8855 51.4898 13.6481 51.8556 13.5923C52.2213 13.5365 52.5755 13.6834 52.6467 13.9204Z" fill="white"/>
<path d="M55.7772 27.5161C55.8626 27.8005 55.6084 28.0803 55.2094 28.1412C54.8105 28.2021 54.4178 28.0209 54.3324 27.7365C54.247 27.4522 54.5012 27.1723 54.9001 27.1115C55.2991 27.0506 55.6918 27.2318 55.7772 27.5161Z" fill="white"/>
<path d="M2.40039 17.9899C2.40039 17.9899 4.63687 17.9899 6.10801 17.9899C7.57915 17.9899 8.00364 17.5512 8.55691 17.5512C9.11019 17.5512 9.18639 18.4287 8.55691 18.4287C7.92743 18.4287 2.40039 17.9899 2.40039 17.9899Z" fill="white"/>
<path d="M226.395 34.5887C224.816 34.5887 223.456 34.2746 222.313 33.6462C221.188 32.9977 220.317 32.0958 219.701 30.9405C219.102 29.7649 218.803 28.3867 218.803 26.8058C218.803 25.2655 219.093 23.9176 219.673 22.7624C220.254 21.5868 221.061 20.6748 222.095 20.0262C223.147 19.3574 224.336 19.0229 225.66 19.0229C226.621 19.0229 227.492 19.2054 228.272 19.5702C229.052 19.9147 229.723 20.4214 230.286 21.0903C230.848 21.7388 231.274 22.5394 231.565 23.492C231.855 24.4243 232 25.4681 232 26.6234C232 27.0085 231.891 27.3024 231.674 27.5051C231.456 27.6875 231.138 27.7787 230.721 27.7787H222.177V25.4073H229.034L228.599 25.833C228.599 25.002 228.49 24.3129 228.272 23.7656C228.054 23.1981 227.737 22.7725 227.32 22.4888C226.921 22.205 226.422 22.0631 225.823 22.0631C225.152 22.0631 224.581 22.2354 224.109 22.58C223.637 22.9245 223.274 23.4211 223.02 24.0697C222.766 24.7182 222.639 25.4985 222.639 26.4106V26.6538C222.639 28.1942 222.957 29.3292 223.592 30.0588C224.245 30.7885 225.206 31.1533 226.476 31.1533C226.912 31.1533 227.411 31.0925 227.973 30.9709C228.535 30.8493 229.061 30.6567 229.551 30.3932C229.968 30.1703 230.34 30.0994 230.667 30.1804C230.993 30.2412 231.247 30.4034 231.429 30.6669C231.61 30.9303 231.71 31.2344 231.728 31.5789C231.764 31.9235 231.701 32.268 231.538 32.6126C231.374 32.9369 231.102 33.2105 230.721 33.4334C230.104 33.8185 229.406 34.1023 228.626 34.2847C227.864 34.4874 227.12 34.5887 226.395 34.5887Z" fill="url(#paint3_linear_375_119)"/>
<path d="M211.178 34.5887C210.38 34.5887 209.555 34.5076 208.702 34.3455C207.867 34.1833 207.106 33.9097 206.416 33.5246C206.053 33.322 205.79 33.0686 205.627 32.7646C205.482 32.4403 205.418 32.116 205.437 31.7917C205.455 31.4674 205.545 31.1736 205.709 30.9101C205.89 30.6466 206.117 30.4743 206.389 30.3932C206.679 30.2919 206.997 30.3223 207.341 30.4845C208.085 30.829 208.765 31.0722 209.382 31.2141C209.999 31.356 210.607 31.4269 211.205 31.4269C211.985 31.4269 212.548 31.2952 212.892 31.0317C213.255 30.7479 213.437 30.3831 213.437 29.9372C213.437 29.5319 213.319 29.2278 213.083 29.0252C212.847 28.8225 212.502 28.6806 212.049 28.5995L209.192 28.0219C208.067 27.799 207.196 27.3429 206.579 26.6538C205.981 25.9444 205.682 25.0425 205.682 23.9481C205.682 22.9347 205.935 22.0631 206.443 21.3335C206.951 20.5836 207.65 20.0161 208.539 19.631C209.446 19.2256 210.471 19.0229 211.614 19.0229C212.43 19.0229 213.183 19.104 213.872 19.2662C214.561 19.4283 215.224 19.6918 215.858 20.0566C216.185 20.239 216.412 20.4822 216.539 20.7863C216.684 21.0903 216.729 21.4044 216.675 21.7287C216.639 22.053 216.53 22.3469 216.348 22.6104C216.167 22.8739 215.931 23.0461 215.641 23.1272C215.369 23.2083 215.051 23.1677 214.688 23.0056C214.108 22.7016 213.573 22.4888 213.083 22.3672C212.593 22.2253 212.121 22.1543 211.668 22.1543C210.852 22.1543 210.262 22.3064 209.899 22.6104C209.536 22.8941 209.355 23.2589 209.355 23.7048C209.355 24.0494 209.455 24.3433 209.654 24.5865C209.872 24.8094 210.199 24.9614 210.634 25.0425L213.491 25.6202C214.67 25.8431 215.568 26.289 216.185 26.9578C216.802 27.6064 217.11 28.4982 217.11 29.6332C217.11 31.1736 216.566 32.3896 215.478 33.2814C214.407 34.1529 212.974 34.5887 211.178 34.5887Z" fill="url(#paint4_linear_375_119)"/>
<path d="M200.85 34.4974C200.179 34.4974 199.662 34.2846 199.299 33.8589C198.954 33.413 198.782 32.7949 198.782 32.0044V21.607C198.782 20.7963 198.954 20.1781 199.299 19.7525C199.662 19.3066 200.179 19.0836 200.85 19.0836C201.503 19.0836 202.002 19.3066 202.346 19.7525C202.709 20.1781 202.891 20.7963 202.891 21.607V32.0044C202.891 32.7949 202.718 33.413 202.374 33.8589C202.029 34.2846 201.521 34.4974 200.85 34.4974ZM200.85 16.5907C200.088 16.5907 199.498 16.3981 199.081 16.013C198.682 15.6077 198.482 15.0402 198.482 14.3105C198.482 13.5606 198.682 12.9931 199.081 12.608C199.498 12.2027 200.088 12 200.85 12C201.612 12 202.192 12.2027 202.591 12.608C202.99 12.9931 203.19 13.5606 203.19 14.3105C203.19 15.0402 202.99 15.6077 202.591 16.013C202.192 16.3981 201.612 16.5907 200.85 16.5907Z" fill="url(#paint5_linear_375_119)"/>
<path d="M174.482 34.5279C173.902 34.5279 173.43 34.3759 173.067 34.0719C172.705 33.7476 172.414 33.2612 172.197 32.6126L166.7 15.3443C166.464 14.5742 166.51 13.9154 166.836 13.3682C167.181 12.821 167.77 12.5474 168.605 12.5474C169.185 12.5474 169.63 12.6994 169.938 13.0034C170.265 13.3074 170.528 13.7837 170.727 14.4323L175.217 29.3596H174.047L178.782 14.4627C179 13.8141 179.263 13.3378 179.571 13.0338C179.897 12.7095 180.324 12.5474 180.85 12.5474C181.358 12.5474 181.766 12.7095 182.074 13.0338C182.383 13.3378 182.646 13.8242 182.863 14.4931L187.381 29.3596H186.374L190.945 14.4323C191.127 13.804 191.381 13.3378 191.707 13.0338C192.034 12.7095 192.478 12.5474 193.04 12.5474C193.748 12.5474 194.265 12.821 194.591 13.3682C194.918 13.9154 194.954 14.5742 194.7 15.3443L189.149 32.643C188.95 33.2713 188.678 33.7476 188.333 34.0719C187.988 34.3759 187.517 34.5279 186.918 34.5279C186.337 34.5279 185.875 34.3759 185.53 34.0719C185.185 33.7476 184.904 33.2612 184.687 32.6126L180.387 19.023H181.04L176.687 32.643C176.469 33.2713 176.188 33.7476 175.843 34.0719C175.516 34.3759 175.063 34.5279 174.482 34.5279Z" fill="url(#paint6_linear_375_119)"/>
<path d="M162.583 34.5885C161.331 34.5885 160.279 34.3554 159.427 33.8893C158.592 33.4231 157.966 32.7441 157.549 31.8523C157.15 30.9606 156.95 29.8357 156.95 28.4777V22.7622H155.808C155.3 22.7622 154.901 22.6102 154.61 22.3062C154.338 22.0021 154.202 21.5867 154.202 21.0597C154.202 20.4922 154.338 20.0666 154.61 19.7828C154.901 19.4788 155.3 19.3268 155.808 19.3268H156.95V17.0162C156.95 16.2461 157.132 15.6684 157.495 15.2833C157.858 14.878 158.365 14.6753 159.019 14.6753C159.69 14.6753 160.198 14.878 160.542 15.2833C160.887 15.6684 161.059 16.2461 161.059 17.0162V19.3268H163.644C164.152 19.3268 164.542 19.4788 164.814 19.7828C165.087 20.0666 165.223 20.4922 165.223 21.0597C165.223 21.5867 165.087 22.0021 164.814 22.3062C164.542 22.6102 164.152 22.7622 163.644 22.7622H161.059V28.2953C161.059 29.1466 161.232 29.785 161.576 30.2106C161.939 30.6363 162.511 30.8491 163.291 30.8491C163.563 30.8491 163.817 30.8187 164.053 30.7579C164.288 30.6971 164.506 30.6565 164.706 30.6363C164.96 30.616 165.168 30.7072 165.331 30.9099C165.495 31.0923 165.576 31.5078 165.576 32.1564C165.576 32.6428 165.504 33.0684 165.359 33.4332C165.214 33.7981 164.96 34.0615 164.597 34.2237C164.361 34.325 164.034 34.4061 163.617 34.4669C163.218 34.548 162.873 34.5885 162.583 34.5885Z" fill="url(#paint7_linear_375_119)"/>
<path d="M148.109 34.5887C146.531 34.5887 145.171 34.2746 144.028 33.6462C142.903 32.9977 142.032 32.0958 141.416 30.9405C140.817 29.7649 140.518 28.3867 140.518 26.8058C140.518 25.2655 140.808 23.9176 141.388 22.7624C141.969 21.5868 142.776 20.6748 143.81 20.0262C144.862 19.3574 146.05 19.0229 147.375 19.0229C148.336 19.0229 149.207 19.2054 149.987 19.5702C150.767 19.9147 151.438 20.4214 152.001 21.0903C152.563 21.7388 152.989 22.5394 153.28 23.492C153.57 24.4243 153.715 25.4681 153.715 26.6234C153.715 27.0085 153.606 27.3024 153.388 27.5051C153.171 27.6875 152.853 27.7787 152.436 27.7787H143.892V25.4073H150.749L150.314 25.833C150.314 25.002 150.205 24.3129 149.987 23.7656C149.769 23.1981 149.452 22.7725 149.035 22.4888C148.636 22.205 148.137 22.0631 147.538 22.0631C146.867 22.0631 146.295 22.2354 145.824 22.58C145.352 22.9245 144.989 23.4211 144.735 24.0697C144.481 24.7182 144.354 25.4985 144.354 26.4106V26.6538C144.354 28.1942 144.672 29.3292 145.307 30.0588C145.96 30.7885 146.921 31.1533 148.191 31.1533C148.626 31.1533 149.125 31.0925 149.688 30.9709C150.25 30.8493 150.776 30.6567 151.266 30.3932C151.683 30.1703 152.055 30.0994 152.382 30.1804C152.708 30.2412 152.962 30.4034 153.144 30.6669C153.325 30.9303 153.425 31.2344 153.443 31.5789C153.479 31.9235 153.416 32.268 153.252 32.6126C153.089 32.9369 152.817 33.2105 152.436 33.4334C151.819 33.8185 151.121 34.1023 150.341 34.2847C149.579 34.4874 148.835 34.5887 148.109 34.5887Z" fill="url(#paint8_linear_375_119)"/>
<path d="M122.995 34.5279C122.36 34.5279 121.871 34.3354 121.526 33.9503C121.199 33.5449 121.036 32.9774 121.036 32.2478V14.9187C121.036 14.1485 121.199 13.5608 121.526 13.1554C121.871 12.75 122.324 12.5474 122.886 12.5474C123.376 12.5474 123.748 12.6588 124.002 12.8818C124.274 13.0845 124.583 13.429 124.927 13.9154L134.478 27.5051H133.744V14.7971C133.744 14.0877 133.907 13.5405 134.234 13.1554C134.578 12.75 135.068 12.5474 135.703 12.5474C136.338 12.5474 136.819 12.75 137.145 13.1554C137.49 13.5405 137.662 14.0877 137.662 14.7971V32.339C137.662 33.0078 137.508 33.5449 137.2 33.9503C136.891 34.3354 136.474 34.5279 135.948 34.5279C135.44 34.5279 135.032 34.4164 134.723 34.1935C134.433 33.9705 134.116 33.6159 133.771 33.1294L124.247 19.5398H124.955V32.2478C124.955 32.9774 124.791 33.5449 124.465 33.9503C124.138 34.3354 123.648 34.5279 122.995 34.5279Z" fill="url(#paint9_linear_375_119)"/>
<path d="M106.142 40.0002C105.471 40.0002 104.954 39.7976 104.591 39.3922C104.247 39.0071 104.074 38.4295 104.074 37.6593V21.3943C104.074 20.6444 104.247 20.0769 104.591 19.6918C104.954 19.2864 105.453 19.0838 106.088 19.0838C106.759 19.0838 107.267 19.2864 107.612 19.6918C107.956 20.0769 108.129 20.6444 108.129 21.3943V23.4616L107.829 22.2759C108.101 21.3031 108.646 20.5228 109.462 19.935C110.296 19.327 111.249 19.0229 112.319 19.0229C113.48 19.0229 114.496 19.3371 115.367 19.9654C116.256 20.5937 116.945 21.4855 117.435 22.6408C117.925 23.796 118.17 25.1743 118.17 26.7754C118.17 28.3766 117.925 29.7649 117.435 30.9405C116.945 32.116 116.265 33.0179 115.394 33.6462C114.523 34.2746 113.498 34.5887 112.319 34.5887C111.267 34.5887 110.333 34.305 109.516 33.7375C108.7 33.1497 108.147 32.3896 107.857 31.4573H108.183V37.6593C108.183 38.4295 108.002 39.0071 107.639 39.3922C107.294 39.7976 106.795 40.0002 106.142 40.0002ZM111.095 31.1533C111.675 31.1533 112.183 30.9912 112.618 30.6669C113.072 30.3426 113.417 29.8663 113.653 29.238C113.906 28.5894 114.033 27.7686 114.033 26.7754C114.033 25.2959 113.761 24.2115 113.217 23.5224C112.673 22.813 111.965 22.4584 111.095 22.4584C110.514 22.4584 109.997 22.6104 109.544 22.9144C109.108 23.2184 108.764 23.6947 108.51 24.3433C108.256 24.9716 108.129 25.7823 108.129 26.7754C108.129 28.255 108.401 29.3596 108.945 30.0892C109.489 30.7986 110.206 31.1533 111.095 31.1533Z" fill="url(#paint10_linear_375_119)"/>
<path d="M89.5339 40.0002C88.8627 40.0002 88.3456 39.7976 87.9828 39.3922C87.6382 39.0071 87.4658 38.4295 87.4658 37.6593V21.3943C87.4658 20.6444 87.6382 20.0769 87.9828 19.6918C88.3456 19.2864 88.8445 19.0838 89.4794 19.0838C90.1506 19.0838 90.6586 19.2864 91.0033 19.6918C91.3479 20.0769 91.5203 20.6444 91.5203 21.3943V23.4616L91.2209 22.2759C91.4931 21.3031 92.0373 20.5228 92.8536 19.935C93.6881 19.327 94.6405 19.0229 95.7108 19.0229C96.8718 19.0229 97.8877 19.3371 98.7584 19.9654C99.6473 20.5937 100.337 21.4855 100.826 22.6408C101.316 23.796 101.561 25.1743 101.561 26.7754C101.561 28.3766 101.316 29.7649 100.826 30.9405C100.337 32.116 99.6564 33.0179 98.7856 33.6462C97.9149 34.2746 96.8899 34.5887 95.7108 34.5887C94.6586 34.5887 93.7244 34.305 92.908 33.7375C92.0917 33.1497 91.5384 32.3896 91.2482 31.4573H91.5747V37.6593C91.5747 38.4295 91.3933 39.0071 91.0305 39.3922C90.6858 39.7976 90.1869 40.0002 89.5339 40.0002ZM94.4863 31.1533C95.0668 31.1533 95.5747 30.9912 96.0101 30.6669C96.4636 30.3426 96.8083 29.8663 97.0441 29.238C97.2981 28.5894 97.4251 27.7686 97.4251 26.7754C97.4251 25.2959 97.153 24.2115 96.6087 23.5224C96.0645 22.813 95.357 22.4584 94.4863 22.4584C93.9058 22.4584 93.3888 22.6104 92.9352 22.9144C92.4999 23.2184 92.1552 23.6947 91.9012 24.3433C91.6473 24.9716 91.5203 25.7823 91.5203 26.7754C91.5203 28.255 91.7924 29.3596 92.3366 30.0892C92.8808 30.7986 93.5974 31.1533 94.4863 31.1533Z" fill="url(#paint11_linear_375_119)"/>
<path d="M67.876 34.5279C67.368 34.5279 66.9508 34.3962 66.6243 34.1327C66.3159 33.8692 66.1163 33.5145 66.0256 33.0686C65.953 32.6227 66.0347 32.1262 66.2705 31.5789L73.2365 14.5235C73.5268 13.8344 73.8715 13.3378 74.2706 13.0338C74.6697 12.7095 75.1323 12.5474 75.6583 12.5474C76.1844 12.5474 76.647 12.7095 77.0461 13.0338C77.4452 13.3378 77.7808 13.8344 78.0529 14.5235L85.0734 31.5789C85.3092 32.1262 85.3908 32.6329 85.3183 33.099C85.2638 33.5449 85.0824 33.8996 84.774 34.1631C84.4657 34.4063 84.0666 34.5279 83.5768 34.5279C82.96 34.5279 82.4792 34.3658 82.1346 34.0415C81.808 33.7172 81.5178 33.2105 81.2638 32.5214L79.6311 28.2955L81.3182 29.6028H69.9712L71.6583 28.2955L70.0528 32.5214C69.7807 33.2308 69.4905 33.7476 69.1821 34.0719C68.8918 34.3759 68.4565 34.5279 67.876 34.5279ZM75.6039 17.8373L72.1209 27.1099L71.3862 25.9242H79.9033L79.1686 27.1099L75.6583 17.8373H75.6039Z" fill="url(#paint12_linear_375_119)"/>
<defs>
<linearGradient id="paint0_linear_375_119" x1="7.32339" y1="42.6402" x2="31.5112" y2="12.5713" gradientUnits="userSpaceOnUse">
<stop offset="0.000999756" stop-color="#E4733D"/>
<stop offset="0.549072" stop-color="#819911"/>
<stop offset="0.988255" stop-color="#19715F"/>
</linearGradient>
<linearGradient id="paint1_linear_375_119" x1="6.15717" y1="1.7551" x2="8.33737" y2="18.9482" gradientUnits="userSpaceOnUse">
<stop offset="0.0759998" stop-color="#58AA23"/>
<stop offset="1" stop-color="#116927"/>
</linearGradient>
<linearGradient id="paint2_linear_375_119" x1="20.2635" y1="4.7098" x2="55.3801" y2="21.6384" gradientUnits="userSpaceOnUse">
<stop offset="0.35192" stop-color="#19715F"/>
<stop offset="0.830631" stop-color="#819911"/>
</linearGradient>
<linearGradient id="paint3_linear_375_119" x1="65.3998" y1="21.4246" x2="241.192" y2="21.4246" gradientUnits="userSpaceOnUse">
<stop stop-color="#EB7140"/>
<stop offset="0.447681" stop-color="#819911"/>
<stop offset="1" stop-color="#19715F"/>
</linearGradient>
<linearGradient id="paint4_linear_375_119" x1="65.3995" y1="21.4246" x2="241.192" y2="21.4246" gradientUnits="userSpaceOnUse">
<stop stop-color="#EB7140"/>
<stop offset="0.447681" stop-color="#819911"/>
<stop offset="1" stop-color="#19715F"/>
</linearGradient>
<linearGradient id="paint5_linear_375_119" x1="65.3998" y1="21.4245" x2="241.192" y2="21.4245" gradientUnits="userSpaceOnUse">
<stop stop-color="#EB7140"/>
<stop offset="0.447681" stop-color="#819911"/>
<stop offset="1" stop-color="#19715F"/>
</linearGradient>
<linearGradient id="paint6_linear_375_119" x1="65.3998" y1="21.4246" x2="241.192" y2="21.4246" gradientUnits="userSpaceOnUse">
<stop stop-color="#EB7140"/>
<stop offset="0.447681" stop-color="#819911"/>
<stop offset="1" stop-color="#19715F"/>
</linearGradient>
<linearGradient id="paint7_linear_375_119" x1="65.3999" y1="21.4244" x2="241.192" y2="21.4244" gradientUnits="userSpaceOnUse">
<stop stop-color="#EB7140"/>
<stop offset="0.447681" stop-color="#819911"/>
<stop offset="1" stop-color="#19715F"/>
</linearGradient>
<linearGradient id="paint8_linear_375_119" x1="65.3997" y1="21.4246" x2="241.192" y2="21.4246" gradientUnits="userSpaceOnUse">
<stop stop-color="#EB7140"/>
<stop offset="0.447681" stop-color="#819911"/>
<stop offset="1" stop-color="#19715F"/>
</linearGradient>
<linearGradient id="paint9_linear_375_119" x1="65.3995" y1="21.4246" x2="241.192" y2="21.4246" gradientUnits="userSpaceOnUse">
<stop stop-color="#EB7140"/>
<stop offset="0.447681" stop-color="#819911"/>
<stop offset="1" stop-color="#19715F"/>
</linearGradient>
<linearGradient id="paint10_linear_375_119" x1="65.3996" y1="21.4246" x2="241.192" y2="21.4246" gradientUnits="userSpaceOnUse">
<stop stop-color="#EB7140"/>
<stop offset="0.447681" stop-color="#819911"/>
<stop offset="1" stop-color="#19715F"/>
</linearGradient>
<linearGradient id="paint11_linear_375_119" x1="65.3995" y1="21.4246" x2="241.192" y2="21.4246" gradientUnits="userSpaceOnUse">
<stop stop-color="#EB7140"/>
<stop offset="0.447681" stop-color="#819911"/>
<stop offset="1" stop-color="#19715F"/>
</linearGradient>
<linearGradient id="paint12_linear_375_119" x1="65.3998" y1="21.4246" x2="241.192" y2="21.4246" gradientUnits="userSpaceOnUse">
<stop stop-color="#EB7140"/>
<stop offset="0.447681" stop-color="#819911"/>
<stop offset="1" stop-color="#19715F"/>
</linearGradient>
</defs>
</svg>
