<svg width="57" height="43" viewBox="0 0 57 43" fill="none" xmlns="http://www.w3.org/2000/svg">
<path d="M4.17173 38.2947C0.233533 32.1671 3.43426 23.6709 10.3372 22.3234C11.4878 22.0988 12.649 22.0823 13.7884 22.3067C14.4721 22.4414 14.7116 22.2044 14.8947 21.5454C16.7002 15.048 20.747 11.1491 26.9692 9.87545C32.8933 8.66282 39.7791 12.5405 42.2362 18.447C42.5252 19.1416 42.8813 19.4551 43.5898 19.6286C48.7152 20.8833 52.1287 25.7694 52.0348 31.6159C51.9529 36.7232 48.1781 41.3183 43.1914 42.3427C42.6112 42.4619 42.0024 42.4515 41.4068 42.4518C31.6581 42.4569 21.9093 42.4175 12.1609 42.4734C8.83118 42.4925 6.25628 41.0775 4.17173 38.2947ZM35.2609 17.8992C36.0479 18.6348 36.3561 19.5054 35.8701 20.5623C35.3773 21.6339 34.5518 22.0583 33.4671 21.8047C33.0111 21.6981 32.6855 21.834 32.3362 22.1152C31.6508 22.6668 30.9378 23.1793 30.2379 23.7104C25.8963 27.0048 22.1811 30.813 20.7992 36.5908C20.5735 37.5346 19.924 38.1702 18.9815 38.3327C17.9826 38.5049 17.1351 38.2193 16.5257 37.2975C16.3558 37.0405 16.1781 36.6438 15.9525 36.5976C14.2601 36.2509 13.2058 34.7343 11.7103 34.0303C10.8794 33.6392 10.4246 32.8821 10.7242 31.8866C11.0096 30.9383 11.7414 30.632 12.6074 30.8268C13.6552 31.0624 13.9082 31.873 13.8009 32.9108C13.6852 34.031 14.6066 34.2074 15.2386 34.6168C15.8059 34.9843 16.1856 34.7333 16.6744 34.2463C18.2004 32.7259 17.8533 28.9845 15.8204 27.1802C13.7298 25.3248 10.8111 25.1413 8.41769 26.7836C6.31041 28.2296 5.15778 31.3705 5.80802 33.895C6.60675 36.9959 8.76493 38.9206 11.5846 38.9481C14.9841 38.9813 18.3845 38.9212 21.7838 38.9664C22.7521 38.9793 22.9563 38.5547 22.9787 37.617C23.1037 32.3745 26.4773 28.193 31.2739 27.2099C32.664 26.9249 34.0688 26.656 35.415 26.2037C40.1323 24.6189 41.0215 21.0584 37.6297 17.1918C34.4705 13.5904 30.5439 12.3553 26.1012 13.6858C21.5651 15.0443 18.8914 18.4205 17.7895 23.2713C17.6435 23.9143 17.8991 24.3211 18.2887 24.7447C19.9445 26.5454 20.7203 28.7151 20.6416 31.2412C20.6294 31.6309 20.4948 32.0643 20.8008 32.5345C21.7344 31.0074 22.5388 29.5293 23.57 28.2081C25.6779 25.5076 28.2907 23.4608 30.9898 21.5186C31.5711 21.1003 31.9812 20.6992 31.9688 19.8175C31.9412 17.8502 33.3863 16.9633 35.2609 17.8992ZM34.6255 19.6821C34.6129 19.1967 34.3873 18.948 33.9271 19.0176C33.6427 19.0606 33.4785 19.2732 33.4401 19.5758C33.403 19.8689 33.4673 20.1402 33.7372 20.271C34.1648 20.4782 34.434 20.2619 34.6255 19.6821ZM18.464 36.5393C19.0499 36.4757 19.2739 36.1258 19.0461 35.5567C18.9074 35.21 18.5401 35.1541 18.278 35.3561C17.8114 35.7157 17.8128 36.136 18.464 36.5393Z" fill="url(#paint0_linear_134_2)"/>
<path d="M14.3862 7.64805C15.8152 11.5176 14.5849 14.8029 12.8006 18.0342C11.7802 17.1641 11.2322 15.7552 10.2611 11.7567C10.2705 12.9412 10.4499 14.1053 10.731 15.2493C11.0112 16.3897 11.3341 17.5182 11.6482 18.6886C9.65963 18.2818 5.97803 13.7458 5.76984 10.1256C5.54953 6.29465 8.39254 0.898878 11.2267 0C11.1811 2.11123 12.5557 3.5634 13.3385 5.29481C13.6795 6.04894 14.0185 6.80409 14.3862 7.64805Z" fill="url(#paint1_linear_134_2)"/>
<path d="M52.9891 19.2578C52.8076 18.6328 52.6477 18.1013 52.5093 17.5636C52.312 16.7971 51.9927 16.2788 51.1643 16.0312C50.1551 15.7295 49.6575 14.7989 49.8898 13.6903C50.068 12.8395 49.8245 12.2713 49.3642 11.6347C46.7201 7.97754 43.2858 5.55589 39.206 4.12432C38.6781 3.93907 38.2027 3.83183 37.6378 4.2602C36.8553 4.85356 35.979 4.74255 35.3275 3.92957C34.9777 3.49308 34.605 3.30027 34.0819 3.28414C30.49 3.17333 27.0294 3.8983 23.6304 5.07653C22.9866 5.29969 22.8662 5.86208 22.609 6.38543C22.094 7.4333 21.2572 7.98769 20.138 7.88682C19.0649 7.79011 18.3386 7.13024 18.0093 6.04573C17.6636 4.90726 17.9513 3.91678 18.7951 3.13169C19.7909 2.20528 21.3242 2.29294 22.1839 3.47763C22.6393 4.10517 22.9963 4.0713 23.5829 3.86842C27.1216 2.64436 30.7292 1.88032 34.4754 2.19876C34.8708 2.23238 35.0716 2.05005 35.3219 1.77501C36.3062 0.693718 37.3977 0.76897 38.0946 2.01797C38.3739 2.51836 38.7096 2.76164 39.1938 2.91694C43.8024 4.3952 47.6246 7.11377 50.5773 11.1892C50.8652 11.5866 51.1483 11.8034 51.6877 11.7934C53.505 11.7599 54.5197 13.4575 53.6461 15.1293C53.2664 15.856 53.2945 16.4034 53.556 17.1265C54.4062 19.4768 54.91 21.9273 55.1834 24.4272C55.2441 24.9824 55.4435 25.3486 55.8538 25.7127C56.7925 26.5458 56.8843 27.7855 56.164 28.6707C55.5195 29.4628 54.406 29.5516 53.6493 28.8712C52.8198 28.1252 52.6959 26.9849 53.5072 26.0192C54.1062 25.3062 54.036 24.5569 53.9213 23.7832C53.6997 22.2888 53.4532 20.7959 52.9891 19.2578ZM19.7581 6.02739C20.3314 6.50139 20.8221 6.32257 21.1827 5.74528C21.4603 5.30083 21.3963 4.83187 21.0084 4.45207C20.6582 4.10906 20.27 4.05347 19.8973 4.37472C19.4084 4.79608 19.1802 5.29741 19.7581 6.02739Z" fill="url(#paint2_linear_134_2)"/>
<path d="M2.30227 16.2412C4.75598 14.9845 6.36909 15.2476 8.11082 16.9496C8.78246 17.6059 8.9002 18.3141 7.9566 19.1039C6.51193 20.3131 4.85973 20.7899 3.04089 19.9256C2.19711 19.5246 1.41602 18.983 0.474709 18.7851C-0.189042 18.6456 -0.0779023 18.1539 0.327061 17.7386C0.894049 17.1573 1.53315 16.6786 2.30227 16.2412Z" fill="#187329"/>
<path d="M55.1748 30.8547C54.8263 33.1972 54.3904 35.4201 53.6439 37.5541C53.4356 38.1497 53.6618 38.5072 53.9342 38.9582C54.583 40.0328 54.47 41.2624 53.7051 42.1577C53.0143 42.9663 51.8651 43.2277 50.9328 42.7884C49.9714 42.3353 49.3734 41.2317 49.5029 40.0601C49.6333 38.8802 50.3374 38.1884 51.3708 37.9676C52.1007 37.8117 52.4418 37.4077 52.6723 36.6951C53.2961 34.7668 53.7309 32.7962 53.9873 30.7781C54.0356 30.3979 54.1346 30.0376 54.5419 29.9943C55.0357 29.9418 55.173 30.3067 55.1748 30.8547ZM51.2937 40.3605C51.3112 41.0188 51.6671 41.1938 52.1678 40.953C52.487 40.7995 52.6691 40.4168 52.4054 40.0765C52.0305 39.5925 51.6492 39.7212 51.2937 40.3605Z" fill="#E5733D"/>
<path d="M39.3937 37.9997C39.1885 37.9997 39.012 37.9445 38.8643 37.834C38.7165 37.7144 38.5975 37.5303 38.5072 37.2817L36.7218 32.1733C36.6479 31.9524 36.6233 31.7591 36.6479 31.5934C36.6807 31.4185 36.7587 31.2805 36.8819 31.1792C37.005 31.078 37.1692 31.0273 37.3744 31.0273C37.555 31.0273 37.7027 31.078 37.8176 31.1792C37.9326 31.2713 38.0311 31.4507 38.1132 31.7177L39.603 36.3153H39.3198L40.859 31.6072C40.9246 31.4047 41.0108 31.2575 41.1175 31.1654C41.2325 31.0734 41.3802 31.0273 41.5608 31.0273C41.7414 31.0273 41.8892 31.078 42.0041 31.1792C42.119 31.2713 42.2052 31.4139 42.2627 31.6072L43.7772 36.3153H43.5186L45.0208 31.6763C45.1029 31.4277 45.2055 31.2575 45.3286 31.1654C45.4599 31.0734 45.6036 31.0273 45.7596 31.0273C45.9566 31.0273 46.1084 31.0826 46.2151 31.193C46.3219 31.3035 46.3834 31.4461 46.3998 31.621C46.4163 31.7867 46.3875 31.9708 46.3136 32.1733L44.5406 37.2817C44.4585 37.5211 44.3395 37.7005 44.1835 37.8202C44.0357 37.9399 43.8592 37.9997 43.654 37.9997C43.4488 37.9997 43.2682 37.9399 43.1123 37.8202C42.9645 37.7005 42.8496 37.5211 42.7675 37.2817L41.1545 32.4908H41.8563L40.2803 37.2679C40.1982 37.5165 40.0832 37.7005 39.9355 37.8202C39.7877 37.9399 39.6071 37.9997 39.3937 37.9997Z" fill="white"/>
<path d="M28.7615 38C28.5152 38 28.3264 37.9263 28.1951 37.7791C28.0637 37.6226 27.998 37.4017 27.998 37.1163V31.8974C27.998 31.6121 28.0637 31.3958 28.1951 31.2485C28.3264 31.1012 28.5111 31.0276 28.7491 31.0276C28.9872 31.0276 29.1719 31.1012 29.3032 31.2485C29.4346 31.3958 29.5002 31.6121 29.5002 31.8974V32.8363L29.3648 32.4911C29.5454 32.0033 29.8245 31.6351 30.2021 31.3866C30.5879 31.1289 31.023 31 31.5073 31C31.9916 31 32.3897 31.1012 32.7016 31.3037C33.0136 31.5062 33.2475 31.8146 33.4035 32.2288C33.5594 32.6338 33.6374 33.1492 33.6374 33.7751V37.1163C33.6374 37.4017 33.5718 37.6226 33.4404 37.7791C33.3091 37.9263 33.1203 38 32.874 38C32.6278 38 32.4348 37.9263 32.2953 37.7791C32.164 37.6226 32.0983 37.4017 32.0983 37.1163V33.858C32.0983 33.3333 32.008 32.9513 31.8274 32.712C31.655 32.4727 31.3841 32.353 31.0147 32.353C30.5633 32.353 30.2021 32.5141 29.9312 32.8363C29.6685 33.1492 29.5372 33.568 29.5372 34.0927V37.1163C29.5372 37.7054 29.2786 38 28.7615 38Z" fill="white"/>
<path d="M12.9295 32.2044C13.0007 32.4413 12.7889 32.6746 12.4564 32.7253C12.1239 32.776 11.7967 32.625 11.7256 32.3881C11.6544 32.1511 11.8662 31.9179 12.1987 31.8671C12.5311 31.8164 12.8584 31.9674 12.9295 32.2044Z" fill="white"/>
<path d="M37.4435 2.92239C37.5012 3.23472 37.1927 3.52127 36.7545 3.56241C36.3163 3.60355 35.9142 3.38371 35.8565 3.07138C35.7988 2.75905 36.1072 2.47251 36.5454 2.43136C36.9837 2.39022 37.3857 2.61006 37.4435 2.92239Z" fill="white"/>
<path d="M52.6467 13.9204C52.7178 14.1573 52.479 14.3946 52.1133 14.4504C51.7476 14.5062 51.3934 14.3594 51.3222 14.1224C51.2511 13.8855 51.4898 13.6481 51.8556 13.5923C52.2213 13.5365 52.5755 13.6834 52.6467 13.9204Z" fill="white"/>
<path d="M55.7772 27.5161C55.8626 27.8005 55.6084 28.0803 55.2094 28.1412C54.8105 28.2021 54.4178 28.0209 54.3324 27.7365C54.247 27.4522 54.5012 27.1723 54.9001 27.1115C55.2991 27.0506 55.6918 27.2318 55.7772 27.5161Z" fill="white"/>
<path d="M2.40039 17.9899C2.40039 17.9899 4.63687 17.9899 6.10801 17.9899C7.57915 17.9899 8.00364 17.5512 8.55691 17.5512C9.11019 17.5512 9.18639 18.4287 8.55691 18.4287C7.92743 18.4287 2.40039 17.9899 2.40039 17.9899Z" fill="white"/>
<defs>
<linearGradient id="paint0_linear_134_2" x1="7.32339" y1="42.6402" x2="31.5112" y2="12.5713" gradientUnits="userSpaceOnUse">
<stop offset="0.000999756" stop-color="#E4733D"/>
<stop offset="0.549072" stop-color="#819911"/>
<stop offset="0.988255" stop-color="#19715F"/>
</linearGradient>
<linearGradient id="paint1_linear_134_2" x1="6.15717" y1="1.7551" x2="8.33737" y2="18.9482" gradientUnits="userSpaceOnUse">
<stop offset="0.0759998" stop-color="#58AA23"/>
<stop offset="1" stop-color="#116927"/>
</linearGradient>
<linearGradient id="paint2_linear_134_2" x1="20.2635" y1="4.7098" x2="55.3801" y2="21.6384" gradientUnits="userSpaceOnUse">
<stop offset="0.35192" stop-color="#19715F"/>
<stop offset="0.830631" stop-color="#819911"/>
</linearGradient>
</defs>
</svg>
